<svg width="12" height="16" viewBox="0 0 12 16" fill="none" xmlns="http://www.w3.org/2000/svg">
<path d="M5.95 16C5.55 16 5.05 15.8 4.75 15.5L0.15 11.1C-0.05 10.9 -0.05 10.6 0.15 10.4C0.35 10.2 0.75 10.2 0.95 10.4L5.55 14.8C5.85 15 6.25 15 6.45 14.8L11.05 10.4C11.25 10.2 11.65 10.2 11.85 10.4C12.05 10.6 12.05 10.9 11.85 11.1L7.25 15.5C6.85 15.8 6.35 16 5.95 16Z" fill="black"/>
<path d="M5.95001 15.7C5.65001 15.7 5.45001 15.5 5.45001 15.2V0.5C5.45001 0.2 5.65001 0 5.95001 0C6.25001 0 6.45001 0.2 6.45001 0.5V15.2C6.45001 15.5 6.25001 15.7 5.95001 15.7Z" fill="black"/>
</svg>
